<svg height="512" viewBox="0 0 60 60" width="512" xmlns="http://www.w3.org/2000/svg"><g id="Page-1" fill="none" fill-rule="evenodd"><g id="003---Premium-Bond" fill="rgb(0,0,0)"><path id="Shape" d="m58 0h-56c-1.1045695 0-2 .8954305-2 2v40c0 1.1045695.8954305 2 2 2h17.18c.1469482.4325744.38769.8273227.705 1.156.2011266.2024458.3149264.4756372.317.761.0010054.0864555-.0101025.1726258-.033.256-.0708287.2562965-.1061582.5210991-.105.787-.0002257 1.3884836.9306364 2.6046297 2.271 2.967.3616082.0962293.6437484.3791331.739.741.2626838.9675444.9819617 1.745455 1.926 2.083v5.249c-.0030419.6954681.3564955 1.3422741.9487673 1.7068276s1.3316956.3941771 1.9512327.0781724l2.1-1.051 2.1 1.048c.6193539.3120962 1.3561838.2810452 1.9470841-.0820528.5909002-.3630981.9515097-1.0064046.9529159-1.6999472v-5.249c.9451446-.337864 1.6649733-1.117087 1.927-2.086.0962293-.3616082.3791331-.6437484.741-.739 1.339018-.3631023 2.2684864-1.578624 2.268-2.966.0019644-.2623309-.0316758-.5237153-.1-.777-.0961995-.3669722.0100765-.7574125.279-1.025.3175603-.3292565.5583169-.7247121.705-1.158h17.18c1.1045695 0 2-.8954305 2-2v-40c0-1.1045695-.8954305-2-2-2zm-17.885 40.844c-.2009758-.2021387-.314772-.4749625-.317-.76-.0010726-.0867884.0100356-.1732981.033-.257.0691406-.256531.1027872-.5213295.1-.787.0001037-1.3887682-.9312396-2.6050074-2.272-2.967-.3612231-.0965405-.6429257-.3793883-.738-.741-.3631023-1.339018-1.578624-2.2684864-2.966-2.268-.2656574-.0025619-.5304254.0310808-.787.1-.3652877.0868093-.7495388-.0204938-1.017-.284-1.2109291-1.1409091-3.1010709-1.1409091-4.312 0-.2668185.2625038-.6494934.3700603-1.014.285-.2572603-.0712282-.5230627-.1068928-.79-.106-1.3887682-.0001037-2.6050074.9312396-2.967 2.272-.0965405.3612231-.3793883.6429257-.741.738-1.339018.3631023-2.2684864 1.578624-2.268 2.966-.0009566.2668745.0343667.5326406.105.79.0231619.0826383.0342764.1681867.033.254-.002228.2850375-.1160242.5578613-.317.76-.3161338.3306143-.5551828.727094-.7 1.161h-10.249c-.46144496-3.6195881-3.3114119-6.469555-6.931-6.931v-26.138c3.6195881-.46144496 6.46955504-3.3114119 6.931-6.931h42.138c.461445 3.6195881 3.3114119 6.46955504 6.931 6.931v26.138c-3.6195881.461445-6.469555 3.3114119-6.931 6.931h-10.249c-.1469482-.4325744-.38769-.8273227-.705-1.156zm17.885-33.934c-2.5125124-.42940532-4.4805947-2.3974876-4.91-4.91h4.91zm-51.09-4.91c-.42940532 2.5125124-2.3974876 4.48059468-4.91 4.91v-4.91zm-4.91 35.09c2.5125124.4294053 4.48059468 2.3974876 4.91 4.91h-4.91zm28.9 19.855c-.5652336-.2799591-1.2287664-.2799591-1.794 0l-2.106 1.055v-5.191c.3120485-.0226703.6189865.0886129.844.306 1.19522 1.1798263 3.11678 1.1798263 4.312 0 .2253556-.2168384.5320405-.3280299.844-.306v5.191zm7.787-13.187c-.7591567.7753392-1.0576504 1.8911821-.787 2.942.0229624.0833612.0340715.1695407.033.256-.0029373.480128-.3216493.901007-.783 1.034-1.053792.2792709-1.8772634 1.1015975-2.158 2.155-.1771717.5407328-.7296315.8645738-1.288.755-1.0509704-.2745857-2.1689933.0209487-2.947.779-.4251919.4063522-1.0948081.4063522-1.52 0-.5749523-.5667072-1.3497039-.8845816-2.157-.885-.2669373-.0008928-.5327397.0347718-.79.106-.5571382.1108518-1.1094102-.2114141-1.287-.751-.2815297-1.0495632-1.1020451-1.8689347-2.152-2.149-.4630909-.1319159-.7836565-.5534984-.787-1.035-.0010911-.0854077.0096784-.1705536.032-.253.0712282-.2572603.1068928-.5230627.106-.79-.0004184-.8072961-.3182928-1.5820477-.885-2.157-.2027494-.2009336-.3168068-.4745501-.3168068-.76s.1140574-.5590664.3168068-.76c.5665558-.5746452.8844267-1.349029.885-2.156.0020671-.2664165-.0322499-.5318679-.102-.789-.0229624-.0833612-.0340715-.1695407-.033-.256.0031373-.4797381.3212429-.9003534.782-1.034 1.0544996-.2783981 1.8786469-1.1010185 2.159-2.155.1688025-.5493555.7305258-.8776072 1.292-.755 1.0502135.2732003 2.1668284-.022642 2.944-.78.4251919-.4063522 1.0948081-.4063522 1.52 0 .776893.7600153 1.8958518 1.0561768 2.947.78.5577242-.1162304 1.1131752.207459 1.287.75.2787097 1.0541146 1.1012741 1.8778242 2.155 2.158.4630909.1319159.7836565.5534984.787 1.035.0010911.0854077-.0096784.1705536-.032.253-.071294.257588-.106959.5237296-.106.791.0005733.806971.3184442 1.5813548.885 2.156.2026299.2005905.3166392.4738765.3166392.759s-.1140093.5584095-.3166392.759zm14.403-1.758c.4294053-2.5125124 2.3974876-4.4805947 4.91-4.91v4.91z" fill-rule="nonzero"/><path id="Shape" d="m30 37c-3.3137085 0-6 2.6862915-6 6s2.6862915 6 6 6 6-2.6862915 6-6c-.0033074-3.3123376-2.6876624-5.9966926-6-6zm0 10c-2.209139 0-4-1.790861-4-4s1.790861-4 4-4 4 1.790861 4 4-1.790861 4-4 4z" fill-rule="nonzero"/><path id="Path" d="m30 15c.4851707.000473.9000069.3491365.9839455.8269912.0839386.4778548-.1872399.9470217-.6432053 1.1128119-.4559653.1657902-.9651545-.0196329-1.2077402-.4398031-.1727115-.3209394-.5063525-.5225002-.8707953-.5260692-.3644429-.003569-.7019673.1914191-.880931.5089145s-.1710225.7072132.0207263 1.0171547c.3630242.6087308.9298468 1.0692742 1.6 1.3v.2c0 .5522847.4477153 1 1 1s1-.4477153 1-1v-.184c1.3769108-.4849733 2.2030823-1.8925391 1.9552305-3.3311676-.2478517-1.4386286-1.4974125-2.4885802-2.9572305-2.4848324-.4851707-.000473-.9000069-.3491365-.9839455-.8269912-.0839386-.4778548.1872399-.9470217.6432053-1.1128119.4559653-.1657902.9651545.0196329 1.2077402.4398031.1727115.3209394.5063525.5225002.8707953.5260692.3644429.003569.7019673-.1914191.880931-.5089145s.1710225-.7072132-.0207263-1.0171547c-.3625283-.60836502-.9285888-1.06886482-1.598-1.3v-.2c0-.55228475-.4477153-1-1-1s-1 .44771525-1 1v.184c-1.3765475.48485233-2.2026937 1.8918441-1.9553873 3.330178s1.49595 2.4885874 2.9553873 2.485822z"/><path id="Path" d="m5 11c-.55228475 0-1 .4477153-1 1v20c0 .5522847.44771525 1 1 1s1-.4477153 1-1v-20c0-.5522847-.44771525-1-1-1z"/><path id="Path" d="m55 33c.5522847 0 1-.4477153 1-1v-20c0-.5522847-.4477153-1-1-1s-1 .4477153-1 1v20c0 .5522847.4477153 1 1 1z"/><path id="Path" d="m45 27c0-.5522847-.4477153-1-1-1h-28c-.5522847 0-1 .4477153-1 1s.4477153 1 1 1h28c.5522847 0 1-.4477153 1-1z"/><path id="Path" d="m44 30h-6c-.5522847 0-1 .4477153-1 1s.4477153 1 1 1h6c.5522847 0 1-.4477153 1-1s-.4477153-1-1-1z"/><path id="Path" d="m22 30h-6c-.5522847 0-1 .4477153-1 1s.4477153 1 1 1h6c.5522847 0 1-.4477153 1-1s-.4477153-1-1-1z"/><path id="Shape" d="m30 24c5.5228475 0 10-4.4771525 10-10s-4.4771525-10-10-10-10 4.4771525-10 10c.0060624 5.5203344 4.4796656 9.9939376 10 10zm0-18c4.418278 0 8 3.581722 8 8s-3.581722 8-8 8-8-3.581722-8-8c.0049599-4.41622192 3.5837781-7.99504012 8-8z" fill-rule="nonzero"/></g></g></svg>