<svg id="Capa_1" enable-background="new 0 0 512 512" height="512" viewBox="0 0 512 512" width="512" xmlns="http://www.w3.org/2000/svg"><g><path d="m432 90c0-5.522-4.477-10-10-10s-10 4.478-10 10v11.368c-11.54 4.19-19.83 15.282-19.83 28.212 0 16.542 13.458 30 30 30 5.514 0 10 4.486 10 10 0 5.539-4.488 10.001-9.986 10.001-.03 0-.061 0-.092-.001-4.329-.039-8.789-2.651-12.898-7.554-3.548-4.234-9.855-4.789-14.088-1.239-4.232 3.548-4.787 9.854-1.239 14.087 5.287 6.307 11.518 10.723 18.134 12.979v12.147c0 5.522 4.477 10 10 10s10-4.478 10-10v-12.061c11.516-3.982 20.17-14.993 20.17-28.359 0-16.542-13.458-30-30-30-5.514 0-10-4.486-10-10 0-5.47 4.446-9.955 9.9-10 3.538-.009 7.356 1.782 10.916 5.226 3.969 3.841 10.299 3.739 14.141-.231 3.841-3.969 3.737-10.299-.231-14.14-5.13-4.965-10.269-7.757-14.895-9.263v-11.172z"/><path d="m471.103 14.14c1.408-3.096 1.146-6.693-.695-9.553s-5.008-4.587-8.408-4.587h-80c-3.4 0-6.567 1.728-8.408 4.587s-2.103 6.457-.695 9.553l15.346 33.747c-28.453 30.146-56.243 81.92-56.243 122.113v20c0 44.486 32.804 70 90 70s90-25.514 90-70v-20c0-40.193-27.79-91.967-56.243-122.114zm-24.636 5.86-9.095 20h-30.744l-9.095-20zm45.533 150v20c0 38.213-31.825 50-70 50-38.189 0-70-11.795-70-50v-20c0-35.445 26.634-83.618 52.322-110h35.355c25.689 26.382 52.323 74.555 52.323 110z"/><path d="m296.17 265.58c-5.514 0-10-4.486-10-10 0-5.47 4.446-9.955 9.9-10 .024 0 .049-.001.074-.001 3.561 0 7.308 1.807 10.842 5.227 3.969 3.842 10.299 3.738 14.141-.231 3.841-3.969 3.737-10.299-.231-14.14-5.13-4.965-10.269-7.757-14.895-9.263v-11.172c0-5.522-4.477-10-10-10s-10 4.478-10 10v11.368c-11.54 4.19-19.83 15.282-19.83 28.212 0 16.542 13.458 30 30 30 5.514 0 10 4.486 10 10 0 5.539-4.488 10.001-9.986 10.001-.03 0-.061 0-.092-.001-4.329-.039-8.789-2.651-12.898-7.554-3.548-4.233-9.856-4.789-14.088-1.239-4.232 3.548-4.787 9.854-1.239 14.087 5.287 6.307 11.518 10.723 18.134 12.979v12.147c0 5.522 4.477 10 10 10s10-4.478 10-10v-12.061c11.516-3.982 20.17-14.993 20.17-28.359-.002-16.542-13.46-30-30.002-30z"/><path d="m176.092 325.58c-4.329-.039-8.789-2.651-12.898-7.554-3.548-4.234-9.855-4.788-14.088-1.239-4.232 3.548-4.787 9.854-1.239 14.087 5.287 6.307 11.518 10.723 18.134 12.979v12.147c0 5.522 4.477 10 10 10s10-4.478 10-10v-12.061c11.516-3.982 20.17-14.993 20.17-28.359 0-16.542-13.458-30-30-30-5.514 0-10-4.486-10-10 0-5.47 4.446-9.955 9.9-10 .024 0 .049-.001.074-.001 3.561 0 7.308 1.807 10.842 5.227 3.969 3.842 10.299 3.738 14.141-.231 3.841-3.969 3.737-10.299-.231-14.14-5.13-4.965-10.269-7.757-14.895-9.263v-11.172c0-5.522-4.477-10-10-10s-10 4.478-10 10v11.368c-11.54 4.19-19.83 15.282-19.83 28.212 0 16.542 13.458 30 30 30 5.514 0 10 4.486 10 10-.002 5.544-4.548 10.088-10.08 10z"/><path d="m27.866 370.874c5.287 6.307 11.518 10.723 18.134 12.979v12.147c0 5.522 4.477 10 10 10s10-4.478 10-10v-12.061c11.516-3.982 20.17-14.993 20.17-28.359 0-16.542-13.458-30-30-30-5.514 0-10-4.486-10-10 0-5.47 4.446-9.955 9.9-10 .024 0 .049-.001.074-.001 3.561 0 7.308 1.807 10.842 5.227 3.969 3.842 10.299 3.738 14.141-.231 3.841-3.969 3.737-10.299-.231-14.14-5.13-4.965-10.269-7.757-14.895-9.263v-11.172c0-5.522-4.477-10-10-10s-10 4.478-10 10v11.368c-11.54 4.19-19.83 15.282-19.83 28.212 0 16.542 13.458 30 30 30 5.514 0 10 4.486 10 10 0 5.539-4.488 10.001-9.986 10.001-.03 0-.061 0-.092-.001-4.329-.039-8.789-2.651-12.898-7.554-3.548-4.234-9.855-4.789-14.088-1.239-4.234 3.548-4.789 9.855-1.241 14.087z"/><path d="m349 502v-126c0-5.522-4.477-10-10-10h-83c-5.523 0-10 4.478-10 10v126c0 5.522 4.477 10 10 10h83c5.523 0 10-4.478 10-10zm-20-10h-63v-106h63z"/><path d="m123 396v106c0 5.522 4.477 10 10 10h83c5.523 0 10-4.478 10-10v-106c0-5.522-4.477-10-10-10h-83c-5.523 0-10 4.478-10 10zm20 10h63v86h-63z"/><path d="m10 512h83c5.523 0 10-4.478 10-10v-66c0-5.522-4.477-10-10-10h-83c-5.523 0-10 4.478-10 10v66c0 5.522 4.477 10 10 10zm10-66h63v46h-63z"/><path d="m35.248 206.028c-5.507.415-9.635 5.217-9.22 10.724.396 5.251 4.78 9.248 9.961 9.248.252 0 .507-.009.763-.028 114.604-8.641 190.915-61.278 269.248-144.462v14.49c0 5.522 4.477 10 10 10s10-4.478 10-10v-40c0-5.522-4.477-10-10-10h-40c-5.523 0-10 4.478-10 10s4.477 9.99 10 9.99h17.121c-65.864 70.113-137.866 130.99-257.873 140.038z"/><circle cx="462" cy="396" r="10"/><path d="m472 296c0-5.522-4.477-10-10-10h-83c-5.523 0-10 4.478-10 10v206c0 5.522 4.477 10 10 10h83c5.523 0 10-4.478 10-10v-60.999c0-5.522-4.477-10-10-10s-10 4.478-10 10v50.999h-63v-186h63v45c0 5.522 4.477 10 10 10s10-4.478 10-10z"/></g></svg>